<svg xmlns="http://www.w3.org/2000/svg" xmlns:xlink="http://www.w3.org/1999/xlink" width="558" height="396" viewBox="0 0 558 396">
  <defs>
    <filter id="mockup-2-a" width="112.3%" height="108.8%" x="-6.1%" y="-4.4%" filterUnits="objectBoundingBox">
      <feOffset dy="3" in="SourceAlpha" result="shadowOffsetOuter1"/>
      <feGaussianBlur in="shadowOffsetOuter1" result="shadowBlurOuter1" stdDeviation="3.5"/>
      <feColorMatrix in="shadowBlurOuter1" result="shadowMatrixOuter1" values="0 0 0 0 0   0 0 0 0 0   0 0 0 0 0  0 0 0 0.5 0"/>
      <feMerge>
        <feMergeNode in="shadowMatrixOuter1"/>
        <feMergeNode in="SourceGraphic"/>
      </feMerge>
    </filter>
    <path id="mockup-2-b" d="M15.2633926,5.68434189e-14 L194.118471,5.68434189e-14 C200.529342,5.68434189e-14 203.025432,0.668050752 205.690915,1.92251041 C208.356399,3.17697006 210.667941,5.01783862 212.523024,7.36347424 C214.378108,9.70910986 215.642389,12.0357481 217.288104,18.4518627 L324.528618,436.548137 C326.174334,442.964252 326.103605,445.29089 325.45182,447.636526 C324.800034,449.982161 323.432848,451.82303 321.410894,453.07749 C319.388941,454.331949 317.235558,455 310.824687,455 L131.969608,455 C125.558738,455 123.062648,454.331949 120.397164,453.07749 C117.73168,451.82303 115.420138,449.982161 113.565055,447.636526 C111.709971,445.29089 110.445691,442.964252 108.799975,436.548137 L1.55946075,18.4518627 C-0.0862545532,12.0357481 -0.0155259171,9.70910986 0.636259587,7.36347424 C1.28804509,5.01783862 2.65523157,3.17697006 4.6771848,1.92251041 C6.69913803,0.668050752 8.85252161,5.68434189e-14 15.2633926,5.68434189e-14 Z"/>
  </defs>
  <g fill="none" fill-rule="evenodd" filter="url(#mockup-2-a)" transform="rotate(-45 182.223 71.728)">
    <mask id="mockup-2-c" fill="#fff">
      <use xlink:href="#mockup-2-b"/>
    </mask>
    <use fill="#FFF" xlink:href="#mockup-2-b"/>
    <path fill="#F1F1F1" d="M40.5346893,13.5940246 L180.731406,13.5940246 C188.584723,13.5940246 191.642433,14.4123868 194.907651,15.9490999 C198.172869,17.4858129 201.004507,19.7408769 203.276985,22.6142806 C205.549462,25.4876842 207.098206,28.337816 209.114207,36.1975564 L224.69766,96.9524267 C226.713661,104.812167 226.627018,107.662299 225.828581,110.535703 C225.030144,113.409106 223.35534,115.66417 220.878448,117.200883 C218.401555,118.737596 215.76366,119.555959 207.910343,119.555959 L67.7136263,119.555959 C59.8603094,119.555959 56.8025993,118.737596 53.5373815,117.200883 C50.2721636,115.66417 47.4405251,113.409106 45.168048,110.535703 C42.8955709,107.662299 41.3468268,104.812167 39.3308256,96.9524267 L23.7473728,36.1975564 C21.7313716,28.337816 21.8180141,25.4876842 22.6164514,22.6142806 C23.4148886,19.7408769 25.0896921,17.4858129 27.5665848,15.9490999 C30.0434775,14.4123868 32.6813724,13.5940246 40.5346893,13.5940246 Z" mask="url(#mockup-2-c)"/>
    <path fill="#615375" d="M109.604492,134.340949 L174.338466,134.340949 C175.962725,134.340949 177.617459,135.658748 178.034418,137.284336 C178.451376,138.909924 177.472666,140.227723 175.848406,140.227723 L111.114433,140.227723 C109.490173,140.227723 107.835439,138.909924 107.418481,137.284336 C107.001522,135.658748 107.980232,134.340949 109.604492,134.340949 Z" mask="url(#mockup-2-c)"/>
    <path fill="#615375" d="M129.812456,146.335677 L159.238462,146.335677 C160.862721,146.335677 162.517455,147.653476 162.934414,149.279064 C163.351373,150.904651 162.372662,152.222451 160.748403,152.222451 L131.322397,152.222451 C129.698138,152.222451 128.043404,150.904651 127.626445,149.279064 C127.209487,147.653476 128.188197,146.335677 129.812456,146.335677 Z" mask="url(#mockup-2-c)" opacity=".4"/>
    <path fill="#F1F1F1" d="M82.0098589,174.323374 L119.136224,174.323374 C126.989541,174.323374 130.047251,175.141737 133.312469,176.67845 C136.577687,178.215163 139.409325,180.470227 141.681802,183.34363 C143.954279,186.217034 145.503024,189.067166 147.519025,196.926906 L157.037557,234.0366 C159.053558,241.896341 158.966915,244.746473 158.168478,247.619876 C157.370041,250.49328 155.695237,252.748344 153.218345,254.285057 C150.741452,255.82177 148.103557,256.640132 140.25024,256.640132 L103.123875,256.640132 C95.2705581,256.640132 92.212848,255.82177 88.9476302,254.285057 C85.6824123,252.748344 82.8507738,250.49328 80.5782967,247.619876 C78.3058196,244.746473 76.7570755,241.896341 74.7410743,234.0366 L65.2225424,196.926906 C63.2065412,189.067166 63.2931838,186.217034 64.091621,183.34363 C64.8900582,180.470227 66.5648617,178.215163 69.0417544,176.67845 C71.5186471,175.141737 74.156542,174.323374 82.0098589,174.323374 Z" mask="url(#mockup-2-c)"/>
    <path fill="#FCDFBA" d="M85.8456152,268.681898 L121.118893,268.681898 C121.659962,268.681898 122.204192,268.828048 122.70479,269.083083 C123.205388,269.338118 123.662354,269.702037 124.028895,270.137576 C124.395436,270.573114 124.671551,271.080271 124.810447,271.621782 C124.949343,272.163293 124.933397,272.670451 124.790285,273.105989 C124.647173,273.541527 124.376895,273.905447 124.007128,274.160482 C123.637361,274.415516 123.168106,274.561666 122.627037,274.561666 L87.3537592,274.561666 C86.8126909,274.561666 86.2684609,274.415516 85.7678628,274.160482 C85.2672646,273.905447 84.8102983,273.541527 84.4437576,273.105989 C84.0772169,272.670451 83.8011017,272.163293 83.6622057,271.621782 C83.5233097,271.080271 83.539256,270.573114 83.682368,270.137576 C83.82548,269.702037 84.0957576,269.338118 84.4655244,269.083083 C84.8352911,268.828048 85.3045469,268.681898 85.8456152,268.681898 Z" mask="url(#mockup-2-c)"/>
    <path fill="#E5625C" d="M132.986319,268.681898 C133.530744,268.681898 134.074974,268.828048 134.575572,269.083083 C135.07617,269.338118 135.533137,269.702037 135.899677,270.137576 C136.266218,270.573114 136.542333,271.080271 136.681229,271.621782 C136.820125,272.163293 136.804179,272.670451 136.661067,273.105989 C136.517955,273.541527 136.247677,273.905447 135.877911,274.160482 C135.508144,274.415516 135.038888,274.561666 134.49782,274.561666 C133.953394,274.561666 133.409164,274.415516 132.908566,274.160482 C132.407968,273.905447 131.951002,273.541527 131.584461,273.105989 C131.21792,272.670451 130.941805,272.163293 130.802909,271.621782 C130.664013,271.080271 130.67996,270.573114 130.823071,270.137576 C130.966183,269.702037 131.236461,269.338118 131.606228,269.083083 C131.975995,268.828048 132.44525,268.681898 132.986319,268.681898 Z" mask="url(#mockup-2-c)"/>
    <path fill="#F1F1F1" d="M111.459974,291.871705 L148.586339,291.871705 C156.439656,291.871705 159.497366,292.690067 162.762584,294.22678 C166.027801,295.763493 168.85944,298.018557 171.131917,300.891961 C173.404394,303.765364 174.953138,306.615496 176.969139,314.475237 L186.487671,351.584931 C188.503673,359.444671 188.41703,362.294803 187.618593,365.168207 C186.820156,368.04161 185.145352,370.296674 182.668459,371.833387 C180.191567,373.370101 177.553672,374.188463 169.700355,374.188463 L132.57399,374.188463 C124.720673,374.188463 121.662963,373.370101 118.397745,371.833387 C115.132527,370.296674 112.300888,368.04161 110.028411,365.168207 C107.755934,362.294803 106.20719,359.444671 104.191189,351.584931 L94.6726571,314.475237 C92.6566558,306.615496 92.7432984,303.765364 93.5417357,300.891961 C94.3401729,298.018557 96.0149763,295.763493 98.491869,294.22678 C100.968762,292.690067 103.606657,291.871705 111.459974,291.871705 Z" mask="url(#mockup-2-c)"/>
    <path fill="#FCDFBA" d="M116.094725,386.230228 L151.368003,386.230228 C151.909071,386.230228 152.453301,386.376379 152.953899,386.631413 C153.454498,386.886448 153.911464,387.250368 154.278005,387.685906 C154.644545,388.121444 154.920661,388.628602 155.059557,389.170113 C155.198453,389.711624 155.182506,390.218781 155.039394,390.654319 C154.896282,391.089858 154.626005,391.453777 154.256238,391.708812 C153.886471,391.963847 153.417215,392.109997 152.876147,392.109997 L117.602869,392.109997 C117.061801,392.109997 116.517571,391.963847 116.016972,391.708812 C115.516374,391.453777 115.059408,391.089858 114.692867,390.654319 C114.326327,390.218781 114.050211,389.711624 113.911315,389.170113 C113.772419,388.628602 113.788366,388.121444 113.931478,387.685906 C114.07459,387.250368 114.344867,386.886448 114.714634,386.631413 C115.084401,386.376379 115.553657,386.230228 116.094725,386.230228 Z" mask="url(#mockup-2-c)"/>
    <path fill="#E5625C" d="M163.235428,386.230228 C163.779854,386.230228 164.324084,386.376379 164.824682,386.631413 C165.32528,386.886448 165.782246,387.250368 166.148787,387.685906 C166.515328,388.121444 166.791443,388.628602 166.930339,389.170113 C167.069235,389.711624 167.053289,390.218781 166.910177,390.654319 C166.767065,391.089858 166.496787,391.453777 166.12702,391.708812 C165.757254,391.963847 165.287998,392.109997 164.746929,392.109997 C164.202504,392.109997 163.658274,391.963847 163.157676,391.708812 C162.657078,391.453777 162.200111,391.089858 161.833571,390.654319 C161.46703,390.218781 161.190915,389.711624 161.052019,389.170113 C160.913123,388.628602 160.929069,388.121444 161.072181,387.685906 C161.215293,387.250368 161.485571,386.886448 161.855338,386.631413 C162.225104,386.376379 162.69436,386.230228 163.235428,386.230228 Z" mask="url(#mockup-2-c)"/>
    <path fill="#F1F1F1" d="M185.879206,174.323374 L223.005571,174.323374 C230.858888,174.323374 233.916598,175.141737 237.181816,176.67845 C240.447034,178.215163 243.278672,180.470227 245.551149,183.34363 C247.823626,186.217034 249.37237,189.067166 251.388372,196.926906 L260.906903,234.0366 C262.922905,241.896341 262.836262,244.746473 262.037825,247.619876 C261.239388,250.49328 259.564584,252.748344 257.087691,254.285057 C254.610799,255.82177 251.972904,256.640132 244.119587,256.640132 L206.993222,256.640132 C199.139905,256.640132 196.082195,255.82177 192.816977,254.285057 C189.551759,252.748344 186.720121,250.49328 184.447643,247.619876 C182.175166,244.746473 180.626422,241.896341 178.610421,234.0366 L169.091889,196.926906 C167.075888,189.067166 167.16253,186.217034 167.960968,183.34363 C168.759405,180.470227 170.434208,178.215163 172.911101,176.67845 C175.387994,175.141737 178.025889,174.323374 185.879206,174.323374 Z" mask="url(#mockup-2-c)"/>
    <path fill="#FCDFBA" d="M189.714962,268.681898 L224.98824,268.681898 C225.529308,268.681898 226.073538,268.828048 226.574137,269.083083 C227.074735,269.338118 227.531701,269.702037 227.898242,270.137576 C228.264782,270.573114 228.540898,271.080271 228.679794,271.621782 C228.81869,272.163293 228.802743,272.670451 228.659631,273.105989 C228.516519,273.541527 228.246242,273.905447 227.876475,274.160482 C227.506708,274.415516 227.037452,274.561666 226.496384,274.561666 L191.223106,274.561666 C190.682038,274.561666 190.137808,274.415516 189.637209,274.160482 C189.136611,273.905447 188.679645,273.541527 188.313104,273.105989 C187.946564,272.670451 187.670448,272.163293 187.531552,271.621782 C187.392656,271.080271 187.408603,270.573114 187.551715,270.137576 C187.694827,269.702037 187.965104,269.338118 188.334871,269.083083 C188.704638,268.828048 189.173894,268.681898 189.714962,268.681898 Z" mask="url(#mockup-2-c)"/>
    <path fill="#E5625C" d="M236.855665,268.681898 C237.400091,268.681898 237.944321,268.828048 238.444919,269.083083 C238.945517,269.338118 239.402483,269.702037 239.769024,270.137576 C240.135565,270.573114 240.41168,271.080271 240.550576,271.621782 C240.689472,272.163293 240.673526,272.670451 240.530414,273.105989 C240.387302,273.541527 240.117024,273.905447 239.747257,274.160482 C239.377491,274.415516 238.908235,274.561666 238.367167,274.561666 C237.822741,274.561666 237.278511,274.415516 236.777913,274.160482 C236.277315,273.905447 235.820349,273.541527 235.453808,273.105989 C235.087267,272.670451 234.811152,272.163293 234.672256,271.621782 C234.53336,271.080271 234.549306,270.573114 234.692418,270.137576 C234.83553,269.702037 235.105808,269.338118 235.475575,269.083083 C235.845341,268.828048 236.314597,268.681898 236.855665,268.681898 Z" mask="url(#mockup-2-c)"/>
    <path fill="#F1F1F1" d="M215.32932,291.871705 L252.455686,291.871705 C260.309002,291.871705 263.366712,292.690067 266.63193,294.22678 C269.897148,295.763493 272.728787,298.018557 275.001264,300.891961 C277.273741,303.765364 278.822485,306.615496 280.838486,314.475237 L290.357018,351.584931 C292.373019,359.444671 292.286377,362.294803 291.48794,365.168207 C290.689502,368.04161 289.014699,370.296674 286.537806,371.833387 C284.060913,373.370101 281.423019,374.188463 273.569702,374.188463 L236.443336,374.188463 C228.590019,374.188463 225.532309,373.370101 222.267092,371.833387 C219.001874,370.296674 216.170235,368.04161 213.897758,365.168207 C211.625281,362.294803 210.076537,359.444671 208.060536,351.584931 L198.542004,314.475237 C196.526003,306.615496 196.612645,303.765364 197.411082,300.891961 C198.20952,298.018557 199.884323,295.763493 202.361216,294.22678 C204.838108,292.690067 207.476003,291.871705 215.32932,291.871705 Z" mask="url(#mockup-2-c)"/>
    <path fill="#FCDFBA" d="M219.964072,386.230228 L255.23735,386.230228 C255.778418,386.230228 256.322648,386.376379 256.823246,386.631413 C257.323844,386.886448 257.780811,387.250368 258.147351,387.685906 C258.513892,388.121444 258.790007,388.628602 258.928903,389.170113 C259.067799,389.711624 259.051853,390.218781 258.908741,390.654319 C258.765629,391.089858 258.495351,391.453777 258.125585,391.708812 C257.755818,391.963847 257.286562,392.109997 256.745494,392.109997 L221.472216,392.109997 C220.931147,392.109997 220.386917,391.963847 219.886319,391.708812 C219.385721,391.453777 218.928755,391.089858 218.562214,390.654319 C218.195673,390.218781 217.919558,389.711624 217.780662,389.170113 C217.641766,388.628602 217.657712,388.121444 217.800824,387.685906 C217.943936,387.250368 218.214214,386.886448 218.583981,386.631413 C218.953747,386.376379 219.423003,386.230228 219.964072,386.230228 Z" mask="url(#mockup-2-c)"/>
    <path fill="#E5625C" d="M267.104775,386.230228 C267.6492,386.230228 268.193431,386.376379 268.694029,386.631413 C269.194627,386.886448 269.651593,387.250368 270.018134,387.685906 C270.384675,388.121444 270.66079,388.628602 270.799686,389.170113 C270.938582,389.711624 270.922635,390.218781 270.779523,390.654319 C270.636411,391.089858 270.366134,391.453777 269.996367,391.708812 C269.6266,391.963847 269.157344,392.109997 268.616276,392.109997 C268.071851,392.109997 267.527621,391.963847 267.027023,391.708812 C266.526424,391.453777 266.069458,391.089858 265.702917,390.654319 C265.336377,390.218781 265.060262,389.711624 264.921366,389.170113 C264.78247,388.628602 264.798416,388.121444 264.941528,387.685906 C265.08464,387.250368 265.354918,386.886448 265.724684,386.631413 C266.094451,386.376379 266.563707,386.230228 267.104775,386.230228 Z" mask="url(#mockup-2-c)"/>
    <polygon fill="#129790" points="104.837 419.815 325.359 419.815 334.384 455 113.861 455" mask="url(#mockup-2-c)"/>
    <path fill="#FFF" d="M147.255561,431.810193 L147.298175,431.810193 C150.534175,431.810193 153.830889,434.435635 154.661593,437.674282 C155.492297,440.912929 153.542419,443.538371 150.306419,443.538371 L150.263806,443.538371 C147.027806,443.538371 143.731091,440.912929 142.900387,437.674282 C142.069683,434.435635 144.019561,431.810193 147.255561,431.810193 Z" mask="url(#mockup-2-c)"/>
    <path fill="#FFF" d="M194.396265 431.810193L194.438878 431.810193C197.674878 431.810193 200.971593 434.435635 201.802297 437.674282 202.633001 440.912929 200.683123 443.538371 197.447123 443.538371L197.40451 443.538371C194.168509 443.538371 190.871795 440.912929 190.041091 437.674282 189.210387 434.435635 191.160265 431.810193 194.396265 431.810193zM241.536968 431.810193L241.579582 431.810193C244.815582 431.810193 248.112297 434.435635 248.943 437.674282 249.773704 440.912929 247.823826 443.538371 244.587826 443.538371L244.545213 443.538371C241.309213 443.538371 238.012498 440.912929 237.181794 437.674282 236.35109 434.435635 238.300968 431.810193 241.536968 431.810193zM288.677672 431.810193L288.720285 431.810193C291.956285 431.810193 295.253 434.435635 296.083704 437.674282 296.914408 440.912929 294.96453 443.538371 291.72853 443.538371L291.685917 443.538371C288.449916 443.538371 285.153202 440.912929 284.322498 437.674282 283.491794 434.435635 285.441672 431.810193 288.677672 431.810193z" mask="url(#mockup-2-c)" opacity=".4"/>
  </g>
</svg>
