<svg xmlns="http://www.w3.org/2000/svg" width="557" height="397" viewBox="0 0 557 397">
  <defs>
    <filter id="mockup-1-a" width="112.3%" height="108.8%" x="-6.2%" y="-4.4%" filterUnits="objectBoundingBox">
      <feOffset dy="3" in="SourceAlpha" result="shadowOffsetOuter1"/>
      <feGaussianBlur in="shadowOffsetOuter1" result="shadowBlurOuter1" stdDeviation="3.5"/>
      <feColorMatrix in="shadowBlurOuter1" result="shadowMatrixOuter1" values="0 0 0 0 0.144345238   0 0 0 0 0.144345238   0 0 0 0 0.144345238  0 0 0 0.5 0"/>
      <feMerge>
        <feMergeNode in="shadowMatrixOuter1"/>
        <feMergeNode in="SourceGraphic"/>
      </feMerge>
    </filter>
  </defs>
  <g fill="none" fill-rule="evenodd" filter="url(#mockup-1-a)" transform="rotate(-45 182.188 71.642)">
    <path fill="#FFF" d="M15.122609,0 L194.312933,0 C200.735821,0 203.234252,0.668050752 205.900342,1.92251041 C208.566433,3.17697006 210.875866,5.01783862 212.72622,7.36347424 C214.576573,9.70910986 215.835083,12.0357481 217.461433,18.4518627 L323.440045,436.548137 C325.066395,442.964252 324.987393,445.29089 324.326179,447.636526 C323.664964,449.982161 322.288774,451.82303 320.258641,453.07749 C318.228509,454.331949 316.068751,455 309.645864,455 L130.45554,455 C124.032652,455 121.534221,454.331949 118.86813,453.07749 C116.20204,451.82303 113.892606,449.982161 112.042253,447.636526 C110.1919,445.29089 108.93339,442.964252 107.30704,436.548137 L1.32842772,18.4518627 C-0.297922409,12.0357481 -0.218920321,9.70910986 0.442294238,7.36347424 C1.1035088,5.01783862 2.4796991,3.17697006 4.50983162,1.92251041 C6.53996414,0.668050752 8.69972153,0 15.122609,0 Z"/>
    <path fill="#E5625C" d="M40.2934233,33.5852373 L73.9141129,33.5852373 C75.2404125,33.5852373 76.5878385,34.6592818 76.923673,35.9841828 C77.2595075,37.3090838 76.456577,38.3831283 75.1302774,38.3831283 L41.5095877,38.3831283 C40.1832882,38.3831283 38.8358622,37.3090838 38.5000277,35.9841828 C38.1641931,34.6592818 38.9671237,33.5852373 40.2934233,33.5852373 Z"/>
    <path fill="#E5625C" d="M93.1259356,33.5852373 L126.746625,33.5852373 C128.072925,33.5852373 129.420351,34.6592818 129.756185,35.9841828 C130.09202,37.3090838 129.289089,38.3831283 127.96279,38.3831283 L94.3421001,38.3831283 C93.0158005,38.3831283 91.6683745,37.3090838 91.33254,35.9841828 C90.9967054,34.6592818 91.799636,33.5852373 93.1259356,33.5852373 Z" opacity=".3"/>
    <path fill="#615375" d="M56.3032755,95.9578207 L109.135788,95.9578207 C110.462087,95.9578207 111.809513,97.0318652 112.145348,98.3567663 C112.481182,99.6816673 111.678252,100.755712 110.351952,100.755712 L57.51944,100.755712 C56.1931404,100.755712 54.8457144,99.6816673 54.5098799,98.3567663 C54.1740453,97.0318652 54.9769759,95.9578207 56.3032755,95.9578207 Z"/>
    <path fill="#F1F1F1" d="M56.3091611,67.1704745 L188.390442,67.1704745 C193.69564,67.1704745 199.085344,71.4666525 200.428682,76.7662566 C201.77202,82.0658607 198.560298,86.3620387 193.2551,86.3620387 L61.173819,86.3620387 C55.8686206,86.3620387 50.4789169,82.0658607 49.1355787,76.7662566 C47.7922405,71.4666525 51.0039627,67.1704745 56.3091611,67.1704745 Z"/>
    <path fill="#615375" d="M58.7047533,105.553603 L82.7195316,105.553603 C84.0458312,105.553603 85.3932572,106.627647 85.7290917,107.952548 C86.0649263,109.277449 85.2619957,110.351494 83.9356961,110.351494 L59.9209178,110.351494 C58.5946182,110.351494 57.2471923,109.277449 56.9113577,107.952548 C56.5755232,106.627647 57.3784537,105.553603 58.7047533,105.553603 Z" opacity=".4"/>
    <path fill="#615375" d="M72.3131277,158.330404 L144.357463,158.330404 C145.683762,158.330404 147.031188,159.404449 147.367023,160.72935 C147.702857,162.054251 146.899927,163.128295 145.573627,163.128295 L73.5292922,163.128295 C72.2029926,163.128295 70.8555667,162.054251 70.5197321,160.72935 C70.1838976,159.404449 70.9868281,158.330404 72.3131277,158.330404 Z"/>
    <path fill="#F1F1F1" d="M72.3190133,129.543058 L204.400294,129.543058 C209.705492,129.543058 215.095196,133.839236 216.438534,139.13884 C217.781873,144.438444 214.57015,148.734622 209.264952,148.734622 L77.1836712,148.734622 C71.8784729,148.734622 66.4887691,144.438444 65.1454309,139.13884 C63.8020927,133.839236 67.013815,129.543058 72.3190133,129.543058 Z"/>
    <path fill="#615375" d="M74.7146055,167.926186 L113.138251,167.926186 C114.46455,167.926186 115.811976,169.000231 116.147811,170.325132 C116.483645,171.650033 115.680715,172.724077 114.354415,172.724077 L75.93077,172.724077 C74.6044704,172.724077 73.2570445,171.650033 72.9212099,170.325132 C72.5853754,169.000231 73.388306,167.926186 74.7146055,167.926186 Z" opacity=".4"/>
    <path fill="#615375" d="M87.5224873,220.702988 L125.946133,220.702988 C127.272432,220.702988 128.619858,221.777032 128.955693,223.101933 C129.291527,224.426834 128.488597,225.500879 127.162297,225.500879 L88.7386518,225.500879 C87.4123522,225.500879 86.0649263,224.426834 85.7290917,223.101933 C85.3932572,221.777032 86.1961877,220.702988 87.5224873,220.702988 Z"/>
    <path fill="#F1F1F1" d="M87.5283729,191.915641 L219.609654,191.915641 C224.914852,191.915641 230.304556,196.211819 231.647894,201.511424 C232.991232,206.811028 229.77951,211.107206 224.474312,211.107206 L92.3930308,211.107206 C87.0878325,211.107206 81.6981287,206.811028 80.3547905,201.511424 C79.0114523,196.211819 82.2231746,191.915641 87.5283729,191.915641 Z"/>
    <path fill="#615375" d="M90.7244578,230.29877 L105.133325,230.29877 C106.459624,230.29877 107.80705,231.372814 108.142885,232.697715 C108.478719,234.022616 107.675789,235.096661 106.349489,235.096661 L91.9406222,235.096661 C90.6143226,235.096661 89.2668967,234.022616 88.9310622,232.697715 C88.5952276,231.372814 89.3981582,230.29877 90.7244578,230.29877 Z" opacity=".4"/>
    <path fill="#615375" d="M103.53234,283.075571 L161.167808,283.075571 C162.494107,283.075571 163.841533,284.149616 164.177368,285.474517 C164.513202,286.799418 163.710272,287.873462 162.383972,287.873462 L104.748504,287.873462 C103.422204,287.873462 102.074778,286.799418 101.738944,285.474517 C101.403109,284.149616 102.20604,283.075571 103.53234,283.075571 Z"/>
    <path fill="#F1F1F1" d="M103.538225,254.288225 L235.619506,254.288225 C240.924704,254.288225 246.314408,258.584403 247.657746,263.884007 C249.001084,269.183611 245.789362,273.479789 240.484164,273.479789 L108.402883,273.479789 C103.097685,273.479789 97.7079809,269.183611 96.3646427,263.884007 C95.0213046,258.584403 98.2330268,254.288225 103.538225,254.288225 Z"/>
    <path fill="#615375" d="M105.933817,292.671353 L139.554507,292.671353 C140.880807,292.671353 142.228233,293.745398 142.564067,295.070299 C142.899902,296.3952 142.096971,297.469244 140.770671,297.469244 L107.149982,297.469244 C105.823682,297.469244 104.476256,296.3952 104.140422,295.070299 C103.804587,293.745398 104.607518,292.671353 105.933817,292.671353 Z" opacity=".4"/>
    <path fill="#615375" d="M119.542192,345.448155 L205.995394,345.448155 C207.321693,345.448155 208.669119,346.522199 209.004954,347.8471 C209.340788,349.172001 208.537858,350.246046 207.211558,350.246046 L120.758356,350.246046 C119.432057,350.246046 118.084631,349.172001 117.748796,347.8471 C117.412962,346.522199 118.215892,345.448155 119.542192,345.448155 Z"/>
    <path fill="#F1F1F1" d="M119.548077,316.660808 L251.629358,316.660808 C256.934556,316.660808 262.32426,320.956986 263.667598,326.256591 C265.010937,331.556195 261.799214,335.852373 256.494016,335.852373 L124.412735,335.852373 C119.107537,335.852373 113.717833,331.556195 112.374495,326.256591 C111.031157,320.956986 114.242879,316.660808 119.548077,316.660808 Z"/>
    <path fill="#615375" d="M121.94367,355.043937 L184.382093,355.043937 C185.708393,355.043937 187.055819,356.117981 187.391653,357.442882 C187.727488,358.767783 186.924557,359.841828 185.598258,359.841828 L123.159834,359.841828 C121.833534,359.841828 120.486109,358.767783 120.150274,357.442882 C119.814439,356.117981 120.61737,355.043937 121.94367,355.043937 Z" opacity=".4"/>
    <path fill="#615375" d="M135.552044,407.820738 L222.005246,407.820738 C223.331546,407.820738 224.678971,408.894783 225.014806,410.219684 C225.350641,411.544585 224.54771,412.618629 223.22141,412.618629 L136.768208,412.618629 C135.441909,412.618629 134.094483,411.544585 133.758648,410.219684 C133.422814,408.894783 134.225744,407.820738 135.552044,407.820738 Z"/>
    <path fill="#F1F1F1" d="M135.55793,379.033392 L267.63921,379.033392 C272.944409,379.033392 278.334112,383.32957 279.677451,388.629174 C281.020789,393.928778 277.809067,398.224956 272.503868,398.224956 L140.422587,398.224956 C135.117389,398.224956 129.727685,393.928778 128.384347,388.629174 C127.041009,383.32957 130.252731,379.033392 135.55793,379.033392 Z"/>
    <path fill="#615375" d="M137.953522,417.41652 L200.391945,417.41652 C201.718245,417.41652 203.065671,418.490565 203.401506,419.815466 C203.73734,421.140367 202.934409,422.214411 201.60811,422.214411 L139.169686,422.214411 C137.843387,422.214411 136.495961,421.140367 136.160126,419.815466 C135.824292,418.490565 136.627222,417.41652 137.953522,417.41652 Z" opacity=".4"/>
  </g>
</svg>
