<svg xmlns="http://www.w3.org/2000/svg" width="561" height="401" viewBox="0 0 561 401">
  <defs>
    <filter id="mockup-3-a" width="115.7%" height="111.2%" x="-7.8%" y="-5.6%" filterUnits="objectBoundingBox">
      <feOffset dy="4" in="SourceAlpha" result="shadowOffsetOuter1"/>
      <feGaussianBlur in="shadowOffsetOuter1" result="shadowBlurOuter1" stdDeviation="4.5"/>
      <feColorMatrix in="shadowBlurOuter1" result="shadowMatrixOuter1" values="0 0 0 0 0   0 0 0 0 0   0 0 0 0 0  0 0 0 0.5 0"/>
      <feMerge>
        <feMergeNode in="shadowMatrixOuter1"/>
        <feMergeNode in="SourceGraphic"/>
      </feMerge>
    </filter>
  </defs>
  <g fill="none" fill-rule="evenodd" filter="url(#mockup-3-a)" transform="rotate(-45 184.543 69.37)">
    <path fill="#FFF" d="M15.122609,0 L194.312933,0 C200.735821,0 203.234252,0.668050752 205.900342,1.92251041 C208.566433,3.17697006 210.875866,5.01783862 212.72622,7.36347424 C214.576573,9.70910986 215.835083,12.0357481 217.461433,18.4518627 L323.440045,436.548137 C325.066395,442.964252 324.987393,445.29089 324.326179,447.636526 C323.664964,449.982161 322.288774,451.82303 320.258641,453.07749 C318.228509,454.331949 316.068751,455 309.645864,455 L130.45554,455 C124.032652,455 121.534221,454.331949 118.86813,453.07749 C116.20204,451.82303 113.892606,449.982161 112.042253,447.636526 C110.1919,445.29089 108.93339,442.964252 107.30704,436.548137 L1.32842772,18.4518627 C-0.297922409,12.0357481 -0.218920321,9.70910986 0.442294238,7.36347424 C1.1035088,5.01783862 2.4796991,3.17697006 4.50983162,1.92251041 C6.53996414,0.668050752 8.69972153,0 15.122609,0 Z"/>
    <path fill="#F1F1F1" d="M53.085105,32 L181.657776,32 C188.879505,32 191.683505,32.7518875 194.671479,34.1637749 C197.659452,35.5756624 200.24187,37.6475498 202.304202,40.2875498 C204.366535,42.9275498 205.763561,45.5461683 207.542522,52.7674701 L230.567548,146.23253 C232.346509,153.453832 232.239671,156.07245 231.478062,158.71245 C230.716452,161.35245 229.154849,163.424338 226.86251,164.836225 C224.570171,166.248113 222.136624,167 214.914895,167 L86.3422242,167 C79.1204949,167 76.3164946,166.248113 73.3285212,164.836225 C70.3405478,163.424338 67.7581302,161.35245 65.6957978,158.71245 C63.6334653,156.07245 62.2364392,153.453832 60.4574785,146.23253 L37.4324516,52.7674701 C35.6534909,45.5461683 35.7603287,42.9275498 36.5219383,40.2875498 C37.2835479,37.6475498 38.8451505,35.5756624 41.1374897,34.1637749 C43.4298289,32.7518875 45.8633757,32 53.085105,32 Z"/>
    <path fill="#615375" d="M115.472376 85C112.409882 85 110.540497 87.5431089 111.298865 90.6776386 112.057233 93.8121682 115.157178 96.3552772 118.219673 96.3552772 121.282167 96.3552772 123.151552 93.8121682 122.393183 90.6776386 121.634815 87.5431089 118.53487 85 115.472376 85zM154.725329 102.032916C149.980453 95.3720993 146.93699 88.9482429 139.730246 89.7313655 132.523503 90.514488 130.612396 103.632568 128.600884 104.871735 126.589372 106.110902 127.074608 98.5632477 122.833544 100.14037 118.59248 101.717491 116.822087 107.04166 115.877693 109.603101 114.933298 112.164541 100.047916 112.958069 117.251341 115.280739 134.454766 117.603409 151.53251 117.542563 157.930508 115.280739 164.328506 113.018916 159.470205 108.693732 154.725329 102.032916zM125.117474 183L184.551557 183C186.043581 183 187.551053 184.119288 187.91859 185.5 188.286127 186.880712 187.37455 188 185.882526 188L126.448443 188C124.956419 188 123.448947 186.880712 123.08141 185.5 122.713873 184.119288 123.62545 183 125.117474 183z"/>
    <path fill="#615375" d="M144.144678,194 L171.507253,194 C173.018446,194 174.545286,195.119288 174.917544,196.5 C175.289803,197.880712 174.366515,199 172.855322,199 L145.492747,199 C143.981554,199 142.454714,197.880712 142.082456,196.5 C141.710197,195.119288 142.633485,194 144.144678,194 Z" opacity=".4"/>
    <path fill="#E5625C" d="M84.139333,231 L100.515958,231 C102.023385,231 103.546419,232.119288 103.91775,233.5 C104.289081,234.880712 103.368094,236 101.860667,236 L85.484042,236 C83.9766153,236 82.4535811,234.880712 82.08225,233.5 C81.7109189,232.119288 82.6319063,231 84.139333,231 Z"/>
    <path fill="#E5625C" d="M116.139333 231L132.515958 231C134.023385 231 135.546419 232.119288 135.91775 233.5 136.289081 234.880712 135.368094 236 133.860667 236L117.484042 236C115.976615 236 114.453581 234.880712 114.08225 233.5 113.710919 232.119288 114.631906 231 116.139333 231zM148.139333 231L164.515958 231C166.023385 231 167.546419 232.119288 167.91775 233.5 168.289081 234.880712 167.368094 236 165.860667 236L149.484042 236C147.976615 236 146.453581 234.880712 146.08225 233.5 145.710919 232.119288 146.631906 231 148.139333 231z" opacity=".3"/>
    <path fill="#19918B" d="M138.566102,411 L189.792421,411 C197.237556,411 204.759776,417.044156 206.59377,424.5 C208.427763,431.955844 203.879034,438 196.433898,438 L145.207579,438 C137.762444,438 130.240224,431.955844 128.40623,424.5 C126.572237,417.044156 131.120966,411 138.566102,411 Z"/>
    <path fill="#65C6C1" d="M230.566102,411 L281.792421,411 C289.237556,411 296.759776,417.044156 298.59377,424.5 C300.427763,431.955844 295.879034,438 288.433898,438 L237.207579,438 C229.762444,438 222.240224,431.955844 220.40623,424.5 C218.572237,417.044156 223.120966,411 230.566102,411 Z"/>
    <path fill="#615375" d="M97.1083758,285 L188.566374,285 C190.051987,285 191.552982,286.119288 191.91894,287.5 C192.284898,288.880712 191.377238,290 189.891624,290 L98.4336261,290 C96.9480126,290 95.4470176,288.880712 95.0810598,287.5 C94.715102,286.119288 95.6227623,285 97.1083758,285 Z"/>
    <path fill="#615375" d="M103.112017 312L178.560444 312C180.048623 312 181.55221 313.119288 181.9188 314.5 182.28539 315.880712 181.376162 317 179.887983 317L104.439556 317C102.951377 317 101.44779 315.880712 101.0812 314.5 100.71461 313.119288 101.623838 312 103.112017 312zM111.113076 339L213.558719 339C215.047645 339 216.551986 340.119288 216.918759 341.5 217.285533 342.880712 216.375849 344 214.886924 344L112.441281 344C110.952355 344 109.448014 342.880712 109.081241 341.5 108.714467 340.119288 109.624151 339 111.113076 339zM117.117474 366L176.551557 366C178.043581 366 179.551053 367.119288 179.91859 368.5 180.286127 369.880712 179.37455 371 177.882526 371L118.448443 371C116.956419 371 115.448947 369.880712 115.08141 368.5 114.713873 367.119288 115.62545 366 117.117474 366z" opacity=".2"/>
    <path fill="#615375" d="M120.118338 377L152.55015 377C154.042783 377 155.55087 378.119288 155.918557 379.5 156.286244 380.880712 155.374295 382 153.881662 382L121.44985 382C119.957217 382 118.44913 380.880712 118.081443 379.5 117.713756 378.119288 118.625705 377 120.118338 377zM113.112017 350L188.560444 350C190.048623 350 191.55221 351.119288 191.9188 352.5 192.28539 353.880712 191.376162 355 189.887983 355L114.439556 355C112.951377 355 111.44779 353.880712 111.0812 352.5 110.71461 351.119288 111.623838 350 113.112017 350zM106.109902 323L154.563889 323C156.050577 323 157.552659 324.119288 157.918882 325.5 158.285104 326.880712 157.376787 328 155.890098 328L107.436111 328C105.949423 328 104.447341 326.880712 104.081118 325.5 103.714896 324.119288 104.623213 323 106.109902 323z" opacity=".5"/>
    <path fill="#F1F1F1" d="M97.4773887,253 L246.194025,253 C252.167402,253 258.202625,257.924868 259.674074,264 C261.145522,270.075132 257.495988,275 251.522611,275 L102.805975,275 C96.8325982,275 90.7973749,270.075132 89.3259264,264 C87.854478,257.924868 91.5040119,253 97.4773887,253 Z"/>
    <path fill="#615375" d="M100.10535,296 L164.571301,296 C166.054783,296 167.553624,297.119288 167.919057,298.5 C168.284489,299.880712 167.378131,301 165.89465,301 L101.428699,301 C99.9452174,301 98.4463761,299.880712 98.0809435,298.5 C97.7155108,297.119288 98.6218687,296 100.10535,296 Z" opacity=".5"/>
  </g>
</svg>
